<svg width="261" height="50" viewBox="0 0 261 50" fill="none" xmlns="http://www.w3.org/2000/svg">
<path d="M47.5873 11.5149H29.5042V48.6885H18.0856V11.5149H0V1.31396H47.5873V11.5149Z" fill="#EF407E"/>
<path d="M89.0193 25.074C89.0193 17.3438 82.7236 11.0035 74.9586 11.0035C67.1275 11.0035 60.8318 17.3438 60.8318 25.074C60.8318 32.7969 67.1275 39.0657 74.9586 39.0657C82.7236 39.0657 89.0193 32.7969 89.0193 25.074ZM99.9973 25.074C99.9973 38.8503 88.7962 50 74.9586 50C61.0481 50 49.8574 38.8503 49.8574 25.074C49.8574 11.3044 61.0481 0.0746346 74.9586 0.0746346C88.7962 0.0746346 99.9973 11.3044 99.9973 25.074Z" fill="#EF407E"/>
<path d="M144.791 24.9284C144.791 17.8601 139.526 12.6869 133.52 12.6869H121.294V37.3229H133.52C139.448 37.1027 144.791 31.9967 144.791 24.9284ZM156.214 24.9284C156.214 38.0466 145.596 48.6885 132.425 48.6885H109.875V1.31396H132.425C146.99 1.31396 156.214 11.8831 156.214 24.9284Z" fill="#EF407E"/>
<path d="M218.211 34.0392H230.58C230.58 34.1182 231.093 40.5246 239.516 40.5246C244.054 40.5246 248.153 37.8288 248.153 34.9115C248.153 28.8636 237.095 28.4262 233.953 27.7668C228.392 26.681 218.944 24.1981 218.944 15.2353C218.944 6.84444 227.946 0 238.933 0C252.327 0 258.915 6.77531 258.915 13.1218H247.133C247.133 11.9498 245.151 9.47295 238.933 9.47295C234.755 9.47295 231.319 12.0213 231.319 15.2353C231.319 19.0952 238.709 19.0952 241.348 19.5337C248.003 20.7694 260.526 22.3739 260.526 34.9115C260.526 43.0736 250.859 49.9327 239.516 49.9327C224.949 49.9327 218.211 40.4512 218.211 34.0392Z" fill="#EF407E"/>
<path d="M187.424 35.3979L196.331 26.5183L210.877 41.0647L201.972 49.9449L187.424 35.3979Z" fill="#C1C1C1"/>
<path d="M201.979 0.268547L210.877 9.15119L196.293 23.7105L187.397 14.8291L201.979 0.268547Z" fill="#C1C1C1"/>
<path d="M195.004 25.1089L186.006 34.0943L161.078 9.20318L170.071 0.222672L195.004 25.1089Z" fill="#EF407E"/>
<path d="M186.003 16.1326L194.997 25.1162L170.071 50L161.078 41.0182L186.003 16.1326Z" fill="#EF407E"/>
</svg>
